<?xml version="1.0" encoding="UTF-8" standalone="no"?>
<!DOCTYPE svg PUBLIC "-//W3C//DTD SVG 1.1//EN"
 "http://www.w3.org/Graphics/SVG/1.1/DTD/svg11.dtd">
<!-- Generated by graphviz version 2.43.0 (0)
 -->
<!-- Title: %3 Pages: 1 -->
<svg width="98pt" height="116pt"
 viewBox="0.00 0.00 97.95 116.00" xmlns="http://www.w3.org/2000/svg" xmlns:xlink="http://www.w3.org/1999/xlink">
<g id="graph0" class="graph" transform="scale(1 1) rotate(0) translate(4 112)">
<title>%3</title>
<polygon fill="white" stroke="transparent" points="-4,4 -4,-112 93.95,-112 93.95,4 -4,4"/>
<!-- processed -->
<g id="node1" class="node">
<title>processed</title>
<ellipse fill="none" stroke="black" cx="44.98" cy="-90" rx="44.95" ry="18"/>
<text text-anchor="middle" x="44.98" y="-85.8" font-family="Times,serif" font-size="14.00">processed</text>
</g>
<!-- block -->
<g id="node2" class="node">
<title>block</title>
<ellipse fill="none" stroke="black" cx="44.98" cy="-18" rx="29.51" ry="18"/>
<text text-anchor="middle" x="44.98" y="-13.8" font-family="Times,serif" font-size="14.00">block</text>
</g>
<!-- processed&#45;&gt;block -->
<g id="edge1" class="edge">
<title>processed&#45;&gt;block</title>
<path fill="none" stroke="black" d="M39.1,-72.05C38.27,-64.23 38.03,-54.75 38.39,-45.98"/>
<polygon fill="black" stroke="black" points="41.89,-46.01 39.11,-35.79 34.91,-45.51 41.89,-46.01"/>
</g>
<!-- block&#45;&gt;processed -->
<g id="edge2" class="edge">
<title>block&#45;&gt;processed</title>
<path fill="none" stroke="black" d="M50.84,-35.79C51.68,-43.59 51.92,-53.07 51.57,-61.85"/>
<polygon fill="black" stroke="black" points="48.06,-61.83 50.85,-72.05 55.05,-62.33 48.06,-61.83"/>
</g>
</g>
</svg>
